<svg width="114" height="24" viewBox="0 0 114 24" fill="none" xmlns="http://www.w3.org/2000/svg">
<path d="M0 18.6253V0H3.56541L14.5543 13.4102H12.8248V0H17.082V18.6253H13.5432L2.52772 5.21508H4.25721V18.6253H0Z" fill="#1A73E8"/>
<path d="M29.9765 18.6253V15.8315L29.7104 15.2195V10.2173C29.7104 9.33038 29.4355 8.63858 28.8856 8.14191C28.3534 7.64523 27.5286 7.3969 26.4111 7.3969C25.6483 7.3969 24.8945 7.52106 24.1495 7.7694C23.4222 8 22.8013 8.31929 22.2869 8.72727L20.7969 5.82705C21.5774 5.27716 22.5175 4.85144 23.6173 4.54989C24.7171 4.24834 25.8346 4.09756 26.9699 4.09756C29.1517 4.09756 30.8457 4.61197 32.0519 5.6408C33.2581 6.66962 33.8612 8.27495 33.8612 10.4568V18.6253H29.9765ZM25.6129 18.8381C24.4954 18.8381 23.5375 18.6519 22.7393 18.2794C21.941 17.8891 21.3291 17.3659 20.9033 16.7095C20.4776 16.0532 20.2648 15.3171 20.2648 14.5011C20.2648 13.6497 20.4687 12.9047 20.8767 12.2661C21.3025 11.6275 21.9676 11.1308 22.8723 10.7761C23.777 10.4035 24.9566 10.2173 26.4111 10.2173H30.216V12.6386H26.8634C25.8878 12.6386 25.2138 12.7982 24.8413 13.1175C24.4865 13.4368 24.3091 13.8359 24.3091 14.3149C24.3091 14.847 24.5131 15.2727 24.9211 15.592C25.3468 15.8936 25.9233 16.0443 26.6506 16.0443C27.3424 16.0443 27.9632 15.8847 28.5131 15.5654C29.063 15.2284 29.4621 14.7406 29.7104 14.102L30.349 16.0177C30.0475 16.9401 29.4976 17.6408 28.6993 18.1197C27.9011 18.5987 26.8723 18.8381 25.6129 18.8381Z" fill="#1A73E8"/>
<path d="M41.2427 18.6253L35.2294 4.31042H39.5132L44.5154 16.6297H42.3868L47.5753 4.31042H51.5664L45.5265 18.6253H41.2427Z" fill="#1A73E8"/>
<path d="M59.9746 18.8381C58.3427 18.8381 56.9059 18.5188 55.6642 17.8803C54.4403 17.2417 53.4913 16.3725 52.8172 15.2727C52.1432 14.1552 51.8061 12.8869 51.8061 11.4678C51.8061 10.031 52.1343 8.76275 52.7906 7.66297C53.4647 6.54545 54.3782 5.67628 55.5312 5.05543C56.6842 4.41685 57.9879 4.09756 59.4425 4.09756C60.8438 4.09756 62.1032 4.39911 63.2208 5.00222C64.356 5.58758 65.2518 6.43902 65.9081 7.55654C66.5644 8.65632 66.8926 9.97783 66.8926 11.5211C66.8926 11.6807 66.8837 11.867 66.866 12.0798C66.8482 12.2749 66.8305 12.4612 66.8128 12.6386H55.1853V10.2173H64.631L63.0345 10.9357C63.0345 10.1907 62.8837 9.54324 62.5822 8.99335C62.2806 8.44346 61.8638 8.01774 61.3316 7.71619C60.7995 7.3969 60.1786 7.23725 59.4691 7.23725C58.7596 7.23725 58.1298 7.3969 57.58 7.71619C57.0478 8.01774 56.631 8.45233 56.3294 9.01996C56.0278 9.56985 55.8771 10.2262 55.8771 10.9889V11.6275C55.8771 12.408 56.0456 13.0998 56.3826 13.7029C56.7374 14.2882 57.2252 14.7406 57.846 15.0599C58.4846 15.3614 59.2296 15.5122 60.0811 15.5122C60.8438 15.5122 61.509 15.3969 62.0766 15.1663C62.662 14.9357 63.1941 14.5898 63.6731 14.1286L65.8815 16.5233C65.2252 17.2683 64.4004 17.8448 63.407 18.2528C62.4137 18.643 61.2695 18.8381 59.9746 18.8381Z" fill="#1A73E8"/>
<path d="M76.3877 24C75.0396 24 73.7359 23.8315 72.4764 23.4945C71.2347 23.1752 70.1971 22.6874 69.3633 22.031L71.013 19.051C71.6161 19.5477 72.3789 19.9379 73.3013 20.2217C74.2414 20.5233 75.1638 20.6741 76.0684 20.6741C77.5407 20.6741 78.605 20.3459 79.2614 19.6896C79.9354 19.0333 80.2724 18.0576 80.2724 16.7628V14.6075L80.5385 11.0155L80.4853 7.3969V4.31042H84.4232V16.2306C84.4232 18.8914 83.7314 20.8514 82.3478 22.1109C80.9642 23.3703 78.9775 24 76.3877 24ZM75.7492 17.9335C74.4188 17.9335 73.2126 17.6497 72.1305 17.082C71.0662 16.4967 70.2059 15.6896 69.5496 14.6608C68.911 13.6142 68.5917 12.3991 68.5917 11.0155C68.5917 9.61419 68.911 8.39911 69.5496 7.37029C70.2059 6.32373 71.0662 5.51663 72.1305 4.949C73.2126 4.38138 74.4188 4.09756 75.7492 4.09756C76.9554 4.09756 78.0197 4.3459 78.9421 4.84257C79.8645 5.32151 80.5829 6.07539 81.0973 7.10421C81.6117 8.1153 81.8689 9.41907 81.8689 11.0155C81.8689 12.5942 81.6117 13.898 81.0973 14.9268C80.5829 15.9379 79.8645 16.6918 78.9421 17.1885C78.0197 17.6851 76.9554 17.9335 75.7492 17.9335ZM76.574 14.5277C77.3013 14.5277 77.9487 14.3858 78.5163 14.102C79.084 13.8004 79.5274 13.3836 79.8467 12.8514C80.166 12.3193 80.3257 11.7073 80.3257 11.0155C80.3257 10.306 80.166 9.69401 79.8467 9.1796C79.5274 8.64745 79.084 8.23947 78.5163 7.95565C77.9487 7.6541 77.3013 7.50333 76.574 7.50333C75.8467 7.50333 75.1993 7.6541 74.6316 7.95565C74.064 8.23947 73.6117 8.64745 73.2747 9.1796C72.9554 9.69401 72.7957 10.306 72.7957 11.0155C72.7957 11.7073 72.9554 12.3193 73.2747 12.8514C73.6117 13.3836 74.064 13.8004 74.6316 14.102C75.1993 14.3858 75.8467 14.5277 76.574 14.5277Z" fill="#1A73E8"/>
<path d="M97.067 18.6253V15.8315L96.8009 15.2195V10.2173C96.8009 9.33038 96.526 8.63858 95.9761 8.14191C95.4439 7.64523 94.6191 7.3969 93.5016 7.3969C92.7388 7.3969 91.9849 7.52106 91.2399 7.7694C90.5127 8 89.8918 8.31929 89.3774 8.72727L87.8874 5.82705C88.6679 5.27716 89.608 4.85144 90.7078 4.54989C91.8076 4.24834 92.9251 4.09756 94.0603 4.09756C96.2422 4.09756 97.9362 4.61197 99.1424 5.6408C100.349 6.66962 100.952 8.27495 100.952 10.4568V18.6253H97.067ZM92.7034 18.8381C91.5858 18.8381 90.628 18.6519 89.8297 18.2794C89.0315 17.8891 88.4195 17.3659 87.9938 16.7095C87.5681 16.0532 87.3552 15.3171 87.3552 14.5011C87.3552 13.6497 87.5592 12.9047 87.9672 12.2661C88.3929 11.6275 89.0581 11.1308 89.9628 10.7761C90.8674 10.4035 92.047 10.2173 93.5016 10.2173H97.3065V12.6386H93.9539C92.9783 12.6386 92.3042 12.7982 91.9317 13.1175C91.577 13.4368 91.3996 13.8359 91.3996 14.3149C91.3996 14.847 91.6036 15.2727 92.0116 15.592C92.4373 15.8936 93.0138 16.0443 93.741 16.0443C94.4328 16.0443 95.0537 15.8847 95.6036 15.5654C96.1535 15.2284 96.5526 14.7406 96.8009 14.102L97.4395 16.0177C97.1379 16.9401 96.5881 17.6408 95.7898 18.1197C94.9916 18.5987 93.9628 18.8381 92.7034 18.8381Z" fill="#1A73E8"/>
<path d="M104.708 18.6253V4.31042H108.673V8.35477L108.114 7.18404C108.54 6.17295 109.223 5.4102 110.163 4.89579C111.103 4.36364 112.247 4.09756 113.595 4.09756V7.92905C113.418 7.91131 113.258 7.90244 113.116 7.90244C112.974 7.8847 112.824 7.87583 112.664 7.87583C111.529 7.87583 110.606 8.20399 109.897 8.86031C109.205 9.49889 108.859 10.5011 108.859 11.867V18.6253H104.708Z" fill="#1A73E8"/>
<path d="M0 18.6253V0H3.56541L14.5543 13.4102H12.8248V0H17.082V18.6253H13.5432L2.52772 5.21508H4.25721V18.6253H0Z" fill="#0E448B"/>
</svg>
