<svg width="342" height="73" viewBox="0 0 342 73" fill="none" xmlns="http://www.w3.org/2000/svg">
<path d="M0 56V0H10.72L43.76 40.32H38.56V0H51.36V56H40.72L7.6 15.68H12.8V56H0Z" fill="#74AAF1"/>
<path d="M90.1294 56V47.6L89.3294 45.76V30.72C89.3294 28.0533 88.5027 25.9733 86.8494 24.48C85.2494 22.9867 82.7694 22.24 79.4094 22.24C77.116 22.24 74.8494 22.6133 72.6094 23.36C70.4227 24.0533 68.556 25.0133 67.0094 26.24L62.5294 17.52C64.876 15.8667 67.7027 14.5867 71.0094 13.68C74.316 12.7733 77.676 12.32 81.0894 12.32C87.6494 12.32 92.7427 13.8667 96.3694 16.96C99.996 20.0533 101.809 24.88 101.809 31.44V56H90.1294ZM77.0094 56.64C73.6494 56.64 70.7694 56.08 68.3694 54.96C65.9694 53.7867 64.1294 52.2133 62.8494 50.24C61.5694 48.2667 60.9294 46.0533 60.9294 43.6C60.9294 41.04 61.5427 38.8 62.7694 36.88C64.0494 34.96 66.0494 33.4667 68.7694 32.4C71.4894 31.28 75.036 30.72 79.4094 30.72H90.8494V38H80.7694C77.836 38 75.8094 38.48 74.6894 39.44C73.6227 40.4 73.0894 41.6 73.0894 43.04C73.0894 44.64 73.7027 45.92 74.9294 46.88C76.2094 47.7867 77.9427 48.24 80.1294 48.24C82.2094 48.24 84.076 47.76 85.7294 46.8C87.3827 45.7867 88.5827 44.32 89.3294 42.4L91.2494 48.16C90.3427 50.9333 88.6894 53.04 86.2894 54.48C83.8894 55.92 80.796 56.64 77.0094 56.64Z" fill="#74AAF1"/>
<path d="M124.003 56L105.923 12.96H118.803L133.843 50H127.443L143.043 12.96H155.043L136.883 56H124.003Z" fill="#74AAF1"/>
<path d="M180.324 56.64C175.417 56.64 171.097 55.68 167.364 53.76C163.684 51.84 160.83 49.2267 158.804 45.92C156.777 42.56 155.764 38.7467 155.764 34.48C155.764 30.16 156.75 26.3467 158.724 23.04C160.75 19.68 163.497 17.0667 166.964 15.2C170.43 13.28 174.35 12.32 178.724 12.32C182.937 12.32 186.724 13.2267 190.084 15.04C193.497 16.8 196.19 19.36 198.164 22.72C200.137 26.0267 201.124 30 201.124 34.64C201.124 35.12 201.097 35.68 201.044 36.32C200.99 36.9067 200.937 37.4667 200.884 38H165.924V30.72H194.324L189.524 32.88C189.524 30.64 189.07 28.6933 188.164 27.04C187.257 25.3867 186.004 24.1067 184.404 23.2C182.804 22.24 180.937 21.76 178.804 21.76C176.67 21.76 174.777 22.24 173.124 23.2C171.524 24.1067 170.27 25.4133 169.364 27.12C168.457 28.7733 168.004 30.7467 168.004 33.04V34.96C168.004 37.3067 168.51 39.3867 169.524 41.2C170.59 42.96 172.057 44.32 173.924 45.28C175.844 46.1867 178.084 46.64 180.644 46.64C182.937 46.64 184.937 46.2933 186.644 45.6C188.404 44.9067 190.004 43.8667 191.444 42.48L198.084 49.68C196.11 51.92 193.63 53.6533 190.644 54.88C187.657 56.0533 184.217 56.64 180.324 56.64Z" fill="#74AAF1"/>
<path d="M229.673 72.16C225.619 72.16 221.699 71.6533 217.913 70.64C214.179 69.68 211.059 68.2133 208.553 66.24L213.512 57.28C215.326 58.7733 217.619 59.9467 220.393 60.8C223.219 61.7067 225.992 62.16 228.712 62.16C233.139 62.16 236.339 61.1733 238.312 59.2C240.339 57.2267 241.353 54.2933 241.353 50.4V43.92L242.152 33.12L241.993 22.24V12.96H253.833V48.8C253.833 56.8 251.752 62.6933 247.592 66.48C243.432 70.2667 237.459 72.16 229.673 72.16ZM227.753 53.92C223.753 53.92 220.126 53.0667 216.872 51.36C213.672 49.6 211.086 47.1733 209.113 44.08C207.193 40.9333 206.232 37.28 206.232 33.12C206.232 28.9067 207.193 25.2533 209.113 22.16C211.086 19.0133 213.672 16.5867 216.872 14.88C220.126 13.1733 223.753 12.32 227.753 12.32C231.379 12.32 234.579 13.0667 237.353 14.56C240.126 16 242.286 18.2667 243.833 21.36C245.379 24.4 246.152 28.32 246.152 33.12C246.152 37.8667 245.379 41.7867 243.833 44.88C242.286 47.92 240.126 50.1867 237.353 51.68C234.579 53.1733 231.379 53.92 227.753 53.92ZM230.232 43.68C232.419 43.68 234.366 43.2533 236.073 42.4C237.779 41.4933 239.112 40.24 240.072 38.64C241.032 37.04 241.512 35.2 241.512 33.12C241.512 30.9867 241.032 29.1467 240.072 27.6C239.112 26 237.779 24.7733 236.073 23.92C234.366 23.0133 232.419 22.56 230.232 22.56C228.046 22.56 226.099 23.0133 224.393 23.92C222.686 24.7733 221.326 26 220.312 27.6C219.353 29.1467 218.872 30.9867 218.872 33.12C218.872 35.2 219.353 37.04 220.312 38.64C221.326 40.24 222.686 41.4933 224.393 42.4C226.099 43.2533 228.046 43.68 230.232 43.68Z" fill="#74AAF1"/>
<path d="M291.848 56V47.6L291.048 45.76V30.72C291.048 28.0533 290.221 25.9733 288.568 24.48C286.968 22.9867 284.488 22.24 281.128 22.24C278.835 22.24 276.568 22.6133 274.328 23.36C272.141 24.0533 270.275 25.0133 268.728 26.24L264.248 17.52C266.595 15.8667 269.421 14.5867 272.728 13.68C276.035 12.7733 279.395 12.32 282.808 12.32C289.368 12.32 294.461 13.8667 298.088 16.96C301.715 20.0533 303.528 24.88 303.528 31.44V56H291.848ZM278.728 56.64C275.368 56.64 272.488 56.08 270.088 54.96C267.688 53.7867 265.848 52.2133 264.568 50.24C263.288 48.2667 262.648 46.0533 262.648 43.6C262.648 41.04 263.261 38.8 264.488 36.88C265.768 34.96 267.768 33.4667 270.488 32.4C273.208 31.28 276.755 30.72 281.128 30.72H292.568V38H282.488C279.555 38 277.528 38.48 276.408 39.44C275.341 40.4 274.808 41.6 274.808 43.04C274.808 44.64 275.421 45.92 276.648 46.88C277.928 47.7867 279.661 48.24 281.848 48.24C283.928 48.24 285.795 47.76 287.448 46.8C289.101 45.7867 290.301 44.32 291.048 42.4L292.968 48.16C292.061 50.9333 290.408 53.04 288.008 54.48C285.608 55.92 282.515 56.64 278.728 56.64Z" fill="#74AAF1"/>
<path d="M314.823 56V12.96H326.743V25.12L325.063 21.6C326.343 18.56 328.396 16.2667 331.223 14.72C334.05 13.12 337.49 12.32 341.543 12.32V23.84C341.01 23.7867 340.53 23.76 340.103 23.76C339.676 23.7067 339.223 23.68 338.743 23.68C335.33 23.68 332.556 24.6667 330.423 26.64C328.343 28.56 327.303 31.5733 327.303 35.68V56H314.823Z" fill="#74AAF1"/>
<path d="M0 56V0H10.72L43.76 40.32H38.56V0H51.36V56H40.72L7.6 15.68H12.8V56H0Z" fill="#1A73E8"/>
</svg>
