<svg width="40" height="40" viewBox="0 0 40 40" fill="none" xmlns="http://www.w3.org/2000/svg">
<mask id="mask0_263_41" style="mask-type:alpha" maskUnits="userSpaceOnUse" x="0" y="0" width="40" height="40">
<rect width="40" height="40" fill="#D9D9D9"/>
</mask>
<g mask="url(#mask0_263_41)">
<path d="M17.7143 22.2857H6.28571C5.6381 22.2857 5.09524 22.0667 4.65714 21.6286C4.21905 21.1905 4 20.6476 4 20C4 19.3524 4.21905 18.8095 4.65714 18.3714C5.09524 17.9333 5.6381 17.7143 6.28571 17.7143H17.7143V6.28571C17.7143 5.6381 17.9333 5.09524 18.3714 4.65714C18.8095 4.21905 19.3524 4 20 4C20.6476 4 21.1905 4.21905 21.6286 4.65714C22.0667 5.09524 22.2857 5.6381 22.2857 6.28571V17.7143H33.7143C34.3619 17.7143 34.9048 17.9333 35.3429 18.3714C35.781 18.8095 36 19.3524 36 20C36 20.6476 35.781 21.1905 35.3429 21.6286C34.9048 22.0667 34.3619 22.2857 33.7143 22.2857H22.2857V33.7143C22.2857 34.3619 22.0667 34.9048 21.6286 35.3429C21.1905 35.781 20.6476 36 20 36C19.3524 36 18.8095 35.781 18.3714 35.3429C17.9333 34.9048 17.7143 34.3619 17.7143 33.7143V22.2857Z" fill="#1C74E9"/>
</g>
</svg>
