<svg width="100" height="100" viewBox="0 0 100 100" fill="none" xmlns="http://www.w3.org/2000/svg">
<rect width="100" height="100" rx="50" fill="#D1E3FA"/>
<mask id="mask0_21_9" style="mask-type:alpha" maskUnits="userSpaceOnUse" x="25" y="25" width="51" height="51">
<rect x="25" y="25" width="51" height="51" fill="#D9D9D9"/>
</mask>
<g mask="url(#mask0_21_9)">
<path d="M50.5 50.5C48.1625 50.5 46.1615 49.6677 44.4969 48.0031C42.8323 46.3385 42 44.3375 42 42C42 39.6625 42.8323 37.6615 44.4969 35.9969C46.1615 34.3323 48.1625 33.5 50.5 33.5C52.8375 33.5 54.8385 34.3323 56.5031 35.9969C58.1677 37.6615 59 39.6625 59 42C59 44.3375 58.1677 46.3385 56.5031 48.0031C54.8385 49.6677 52.8375 50.5 50.5 50.5ZM33.5 67.5V61.55C33.5 60.3458 33.8099 59.2391 34.4297 58.2297C35.0495 57.2203 35.8729 56.45 36.9 55.9188C39.0958 54.8208 41.3271 53.9974 43.5938 53.4484C45.8604 52.8995 48.1625 52.625 50.5 52.625C52.8375 52.625 55.1396 52.8995 57.4062 53.4484C59.6729 53.9974 61.9042 54.8208 64.1 55.9188C65.1271 56.45 65.9505 57.2203 66.5703 58.2297C67.1901 59.2391 67.5 60.3458 67.5 61.55V67.5H33.5ZM37.75 63.25H63.25V61.55C63.25 61.1604 63.1526 60.8062 62.9578 60.4875C62.763 60.1687 62.5063 59.9208 62.1875 59.7438C60.275 58.7875 58.3448 58.0703 56.3969 57.5922C54.449 57.1141 52.4833 56.875 50.5 56.875C48.5167 56.875 46.551 57.1141 44.6031 57.5922C42.6552 58.0703 40.725 58.7875 38.8125 59.7438C38.4937 59.9208 38.237 60.1687 38.0422 60.4875C37.8474 60.8062 37.75 61.1604 37.75 61.55V63.25ZM50.5 46.25C51.6688 46.25 52.6693 45.8339 53.5016 45.0016C54.3339 44.1693 54.75 43.1688 54.75 42C54.75 40.8312 54.3339 39.8307 53.5016 38.9984C52.6693 38.1661 51.6688 37.75 50.5 37.75C49.3312 37.75 48.3307 38.1661 47.4984 38.9984C46.6661 39.8307 46.25 40.8312 46.25 42C46.25 43.1688 46.6661 44.1693 47.4984 45.0016C48.3307 45.8339 49.3312 46.25 50.5 46.25Z" fill="#333333"/>
</g>
</svg>
