<svg width="270" height="270" viewBox="0 0 270 270" fill="none" xmlns="http://www.w3.org/2000/svg">
<mask id="mask0_29_13" style="mask-type:alpha" maskUnits="userSpaceOnUse" x="0" y="0" width="270" height="270">
<rect width="270" height="270" fill="#E81A1A"/>
</mask>
<g mask="url(#mask0_29_13)">
<path d="M78.7498 236.25C72.5623 236.25 67.2654 234.047 62.8591 229.641C58.4529 225.234 56.2498 219.938 56.2498 213.75V67.5H44.9998V45H101.25V33.75H168.75V45H225V67.5H213.75V213.75C213.75 219.938 211.547 225.234 207.14 229.641C202.734 234.047 197.437 236.25 191.25 236.25H78.7498ZM191.25 67.5H78.7498V213.75H191.25V67.5ZM101.25 191.25H123.75V90H101.25V191.25ZM146.25 191.25H168.75V90H146.25V191.25Z" fill="#E81A1A"/>
</g>
</svg>
