<svg width="24" height="24" viewBox="0 0 24 24" fill="none" xmlns="http://www.w3.org/2000/svg">
<path d="M18.45 15.6L17 14.15L18.55 12L15 6.99999H9.85003L7.85002 4.99999H15C15.3334 4.99999 15.6417 5.07082 15.925 5.21249C16.2084 5.35415 16.45 5.56665 16.65 5.84999L21 12L18.45 15.6ZM19.8 22.6L15.95 18.75C15.8 18.8333 15.65 18.8958 15.5 18.9375C15.35 18.9792 15.1834 19 15 19H5.00002C4.45002 19 3.97919 18.8042 3.58752 18.4125C3.19586 18.0208 3.00002 17.55 3.00002 17V6.99999C3.00002 6.81665 3.02086 6.64999 3.06252 6.49999C3.10419 6.34999 3.16669 6.19999 3.25002 6.04999L1.40002 4.19999L2.80002 2.79999L21.2 21.2L19.8 22.6ZM14.2 17L5.00002 7.79999V17H14.2Z" fill="#E81C1C"/>
</svg>
