<svg width="271" height="271" viewBox="0 0 271 271" fill="none" xmlns="http://www.w3.org/2000/svg">
<mask id="mask0_29_7" style="mask-type:alpha" maskUnits="userSpaceOnUse" x="0" y="0" width="271" height="271">
<rect x="0.105225" y="0.231934" width="270" height="270" fill="#D9D9D9"/>
</mask>
<g mask="url(#mask0_29_7)">
<path d="M56.3552 213.982H72.3865L182.355 104.013L166.324 87.9819L56.3552 197.951V213.982ZM33.8552 236.482V188.669L182.355 40.4507C184.605 38.3882 187.09 36.7944 189.808 35.6694C192.527 34.5444 195.386 33.9819 198.386 33.9819C201.386 33.9819 204.293 34.5444 207.105 35.6694C209.918 36.7944 212.355 38.4819 214.418 40.7319L229.886 56.4819C232.136 58.5444 233.777 60.9819 234.808 63.7944C235.84 66.6069 236.355 69.4194 236.355 72.2319C236.355 75.2319 235.84 78.0913 234.808 80.8101C233.777 83.5288 232.136 86.0132 229.886 88.2632L81.6677 236.482H33.8552ZM174.199 96.1382L166.324 87.9819L182.355 104.013L174.199 96.1382Z" fill="#1A73E8"/>
</g>
</svg>
