<svg width="40" height="40" viewBox="0 0 40 40" fill="none" xmlns="http://www.w3.org/2000/svg">
<mask id="mask0_61_155" style="mask-type:alpha" maskUnits="userSpaceOnUse" x="0" y="0" width="40" height="40">
<rect width="40" height="40" fill="#D9D9D9"/>
</mask>
<g mask="url(#mask0_61_155)">
<path d="M10 36.6667C9.08335 36.6667 8.29863 36.3403 7.64585 35.6875C6.99308 35.0347 6.66669 34.25 6.66669 33.3333V16.6667C6.66669 15.75 6.99308 14.9653 7.64585 14.3125C8.29863 13.6597 9.08335 13.3333 10 13.3333H11.6667V10C11.6667 7.69444 12.4792 5.72916 14.1042 4.10416C15.7292 2.47916 17.6945 1.66666 20 1.66666C22.3056 1.66666 24.2709 2.47916 25.8959 4.10416C27.5209 5.72916 28.3334 7.69444 28.3334 10V13.3333H30C30.9167 13.3333 31.7014 13.6597 32.3542 14.3125C33.007 14.9653 33.3334 15.75 33.3334 16.6667V33.3333C33.3334 34.25 33.007 35.0347 32.3542 35.6875C31.7014 36.3403 30.9167 36.6667 30 36.6667H10ZM10 33.3333H30V16.6667H10V33.3333ZM20 28.3333C20.9167 28.3333 21.7014 28.0069 22.3542 27.3542C23.007 26.7014 23.3334 25.9167 23.3334 25C23.3334 24.0833 23.007 23.2986 22.3542 22.6458C21.7014 21.9931 20.9167 21.6667 20 21.6667C19.0834 21.6667 18.2986 21.9931 17.6459 22.6458C16.9931 23.2986 16.6667 24.0833 16.6667 25C16.6667 25.9167 16.9931 26.7014 17.6459 27.3542C18.2986 28.0069 19.0834 28.3333 20 28.3333ZM15 13.3333H25V10C25 8.61111 24.5139 7.43055 23.5417 6.45833C22.5695 5.48611 21.3889 5 20 5C18.6111 5 17.4306 5.48611 16.4584 6.45833C15.4861 7.43055 15 8.61111 15 10V13.3333Z" fill="#1A73E8"/>
</g>
</svg>
