<svg width="273" height="274" viewBox="0 0 273 274" fill="none" xmlns="http://www.w3.org/2000/svg">
<mask id="mask0_22_15" style="mask-type:alpha" maskUnits="userSpaceOnUse" x="0" y="0" width="273" height="274">
<rect x="0.203857" y="0.88501" width="272.796" height="272.796" fill="#D9D9D9"/>
</mask>
<g mask="url(#mask0_22_15)">
<path d="M222.988 239.581L151.379 167.972C145.695 172.519 139.16 176.118 131.771 178.771C124.383 181.423 116.521 182.749 108.186 182.749C87.5368 182.749 70.0608 175.598 55.758 161.295C41.4551 146.992 34.3037 129.516 34.3037 108.867C34.3037 88.2175 41.4551 70.7415 55.758 56.4387C70.0608 42.1358 87.5368 34.9844 108.186 34.9844C128.835 34.9844 146.311 42.1358 160.614 56.4387C174.917 70.7415 182.068 88.2175 182.068 108.867C182.068 117.202 180.742 125.064 178.09 132.452C175.438 139.84 171.838 146.376 167.292 152.059L238.901 223.668L222.988 239.581ZM108.186 160.016C122.394 160.016 134.471 155.043 144.417 145.097C154.362 135.152 159.335 123.075 159.335 108.867C159.335 94.6585 154.362 82.5816 144.417 72.6359C134.471 62.6902 122.394 57.7174 108.186 57.7174C93.9779 57.7174 81.901 62.6902 71.9553 72.6359C62.0096 82.5816 57.0367 94.6585 57.0367 108.867C57.0367 123.075 62.0096 135.152 71.9553 145.097C81.901 155.043 93.9779 160.016 108.186 160.016Z" fill="white"/>
</g>
</svg>
