<svg width="25" height="25" viewBox="0 0 25 25" fill="none" xmlns="http://www.w3.org/2000/svg">
<mask id="mask0_101_33" style="mask-type:alpha" maskUnits="userSpaceOnUse" x="0" y="0" width="25" height="25">
<rect x="0.826172" y="0.499908" width="24" height="24" fill="#D9D9D9"/>
</mask>
<g mask="url(#mask0_101_33)">
<path d="M11.4262 14.2999L9.27617 12.1499C9.09284 11.9666 8.85951 11.8749 8.57617 11.8749C8.29284 11.8749 8.05951 11.9666 7.87617 12.1499C7.69284 12.3332 7.60117 12.5666 7.60117 12.8499C7.60117 13.1332 7.69284 13.3666 7.87617 13.5499L10.7262 16.3999C10.9262 16.5999 11.1595 16.6999 11.4262 16.6999C11.6928 16.6999 11.9262 16.5999 12.1262 16.3999L17.7762 10.7499C17.9595 10.5666 18.0512 10.3332 18.0512 10.0499C18.0512 9.76658 17.9595 9.53324 17.7762 9.34991C17.5928 9.16658 17.3595 9.07491 17.0762 9.07491C16.7928 9.07491 16.5595 9.16658 16.3762 9.34991L11.4262 14.2999ZM12.8262 22.4999C11.4428 22.4999 10.1428 22.2374 8.92617 21.7124C7.70951 21.1874 6.65117 20.4749 5.75117 19.5749C4.85117 18.6749 4.13867 17.6166 3.61367 16.3999C3.08867 15.1832 2.82617 13.8832 2.82617 12.4999C2.82617 11.1166 3.08867 9.81658 3.61367 8.59991C4.13867 7.38324 4.85117 6.32491 5.75117 5.42491C6.65117 4.52491 7.70951 3.81241 8.92617 3.28741C10.1428 2.76241 11.4428 2.49991 12.8262 2.49991C14.2095 2.49991 15.5095 2.76241 16.7262 3.28741C17.9428 3.81241 19.0012 4.52491 19.9012 5.42491C20.8012 6.32491 21.5137 7.38324 22.0387 8.59991C22.5637 9.81658 22.8262 11.1166 22.8262 12.4999C22.8262 13.8832 22.5637 15.1832 22.0387 16.3999C21.5137 17.6166 20.8012 18.6749 19.9012 19.5749C19.0012 20.4749 17.9428 21.1874 16.7262 21.7124C15.5095 22.2374 14.2095 22.4999 12.8262 22.4999ZM12.8262 20.4999C15.0595 20.4999 16.9512 19.7249 18.5012 18.1749C20.0512 16.6249 20.8262 14.7332 20.8262 12.4999C20.8262 10.2666 20.0512 8.37491 18.5012 6.82491C16.9512 5.27491 15.0595 4.49991 12.8262 4.49991C10.5928 4.49991 8.70117 5.27491 7.15117 6.82491C5.60117 8.37491 4.82617 10.2666 4.82617 12.4999C4.82617 14.7332 5.60117 16.6249 7.15117 18.1749C8.70117 19.7249 10.5928 20.4999 12.8262 20.4999Z" fill="#1AE85F"/>
</g>
</svg>
