<svg width="25" height="25" viewBox="0 0 25 25" fill="none" xmlns="http://www.w3.org/2000/svg">
<mask id="mask0_101_45" style="mask-type:alpha" maskUnits="userSpaceOnUse" x="0" y="0" width="25" height="25">
<rect x="0.0267944" y="0.0466614" width="24" height="24" fill="#D9D9D9"/>
</mask>
<g mask="url(#mask0_101_45)">
<path d="M12.0268 17.0467C12.3101 17.0467 12.5476 16.9508 12.7393 16.7592C12.931 16.5675 13.0268 16.33 13.0268 16.0467C13.0268 15.7633 12.931 15.5258 12.7393 15.3342C12.5476 15.1425 12.3101 15.0467 12.0268 15.0467C11.7435 15.0467 11.506 15.1425 11.3143 15.3342C11.1226 15.5258 11.0268 15.7633 11.0268 16.0467C11.0268 16.33 11.1226 16.5675 11.3143 16.7592C11.506 16.9508 11.7435 17.0467 12.0268 17.0467ZM12.0268 13.0467C12.3101 13.0467 12.5476 12.9508 12.7393 12.7592C12.931 12.5675 13.0268 12.33 13.0268 12.0467V8.04666C13.0268 7.76333 12.931 7.52583 12.7393 7.33416C12.5476 7.14249 12.3101 7.04666 12.0268 7.04666C11.7435 7.04666 11.506 7.14249 11.3143 7.33416C11.1226 7.52583 11.0268 7.76333 11.0268 8.04666V12.0467C11.0268 12.33 11.1226 12.5675 11.3143 12.7592C11.506 12.9508 11.7435 13.0467 12.0268 13.0467ZM12.0268 22.0467C10.6435 22.0467 9.34346 21.7842 8.12679 21.2592C6.91013 20.7342 5.85179 20.0217 4.95179 19.1217C4.05179 18.2217 3.33929 17.1633 2.81429 15.9467C2.28929 14.73 2.02679 13.43 2.02679 12.0467C2.02679 10.6633 2.28929 9.36333 2.81429 8.14666C3.33929 6.92999 4.05179 5.87166 4.95179 4.97166C5.85179 4.07166 6.91013 3.35916 8.12679 2.83416C9.34346 2.30916 10.6435 2.04666 12.0268 2.04666C13.4101 2.04666 14.7101 2.30916 15.9268 2.83416C17.1435 3.35916 18.2018 4.07166 19.1018 4.97166C20.0018 5.87166 20.7143 6.92999 21.2393 8.14666C21.7643 9.36333 22.0268 10.6633 22.0268 12.0467C22.0268 13.43 21.7643 14.73 21.2393 15.9467C20.7143 17.1633 20.0018 18.2217 19.1018 19.1217C18.2018 20.0217 17.1435 20.7342 15.9268 21.2592C14.7101 21.7842 13.4101 22.0467 12.0268 22.0467ZM12.0268 20.0467C14.2601 20.0467 16.1518 19.2717 17.7018 17.7217C19.2518 16.1717 20.0268 14.28 20.0268 12.0467C20.0268 9.81333 19.2518 7.92166 17.7018 6.37166C16.1518 4.82166 14.2601 4.04666 12.0268 4.04666C9.79346 4.04666 7.90179 4.82166 6.35179 6.37166C4.80179 7.92166 4.02679 9.81333 4.02679 12.0467C4.02679 14.28 4.80179 16.1717 6.35179 17.7217C7.90179 19.2717 9.79346 20.0467 12.0268 20.0467Z" fill="#E8C61A"/>
</g>
</svg>
