<svg width="324" height="72" viewBox="0 0 324 72" fill="none" xmlns="http://www.w3.org/2000/svg">
<path d="M0 56V0H4.88L43.52 48.64H40.96V0H46.8V56H41.92L3.36 7.36H5.92V56H0Z" fill="#A2C6F6"/>
<path d="M90.1981 56V46.72L89.9581 45.2V29.68C89.9581 26.1067 88.9448 23.36 86.9181 21.44C84.9448 19.52 81.9848 18.56 78.0381 18.56C75.3181 18.56 72.7315 19.0133 70.2781 19.92C67.8248 20.8267 65.7448 22.0267 64.0381 23.52L61.4781 19.28C63.6115 17.4667 66.1715 16.08 69.1581 15.12C72.1448 14.1067 75.2915 13.6 78.5981 13.6C84.0381 13.6 88.2248 14.96 91.1581 17.68C94.1448 20.3467 95.6381 24.4267 95.6381 29.92V56H90.1981ZM75.7181 56.4C72.5715 56.4 69.8248 55.8933 67.4781 54.88C65.1848 53.8133 63.4248 52.3733 62.1981 50.56C60.9715 48.6933 60.3581 46.56 60.3581 44.16C60.3581 41.9733 60.8648 40 61.8781 38.24C62.9448 36.4267 64.6515 34.9867 66.9981 33.92C69.3981 32.8 72.5981 32.24 76.5981 32.24H91.0781V36.48H76.7581C72.7048 36.48 69.8781 37.2 68.2781 38.64C66.7315 40.08 65.9581 41.8667 65.9581 44C65.9581 46.4 66.8915 48.32 68.7581 49.76C70.6248 51.2 73.2381 51.92 76.5981 51.92C79.7981 51.92 82.5448 51.2 84.8381 49.76C87.1848 48.2667 88.8915 46.1333 89.9581 43.36L91.2381 47.28C90.1715 50.0533 88.3048 52.2667 85.6381 53.92C83.0248 55.5733 79.7181 56.4 75.7181 56.4Z" fill="#A2C6F6"/>
<path d="M121.084 56L102.444 14H108.364L125.484 52.96H122.684L140.044 14H145.644L126.924 56H121.084Z" fill="#A2C6F6"/>
<path d="M170.312 56.4C165.939 56.4 162.099 55.4933 158.792 53.68C155.485 51.8133 152.899 49.28 151.032 46.08C149.165 42.8267 148.232 39.12 148.232 34.96C148.232 30.8 149.112 27.12 150.872 23.92C152.685 20.72 155.139 18.2133 158.232 16.4C161.379 14.5333 164.899 13.6 168.792 13.6C172.739 13.6 176.232 14.5067 179.272 16.32C182.365 18.08 184.792 20.5867 186.552 23.84C188.312 27.04 189.192 30.7467 189.192 34.96C189.192 35.2267 189.165 35.52 189.112 35.84C189.112 36.1067 189.112 36.4 189.112 36.72H152.552V32.48H186.072L183.832 34.16C183.832 31.12 183.165 28.4267 181.832 26.08C180.552 23.68 178.792 21.8133 176.552 20.48C174.312 19.1467 171.725 18.48 168.792 18.48C165.912 18.48 163.325 19.1467 161.032 20.48C158.739 21.8133 156.952 23.68 155.672 26.08C154.392 28.48 153.752 31.2267 153.752 34.32V35.2C153.752 38.4 154.445 41.2267 155.832 43.68C157.272 46.08 159.245 47.9733 161.752 49.36C164.312 50.6933 167.219 51.36 170.472 51.36C173.032 51.36 175.405 50.9067 177.592 50C179.832 49.0933 181.752 47.7067 183.352 45.84L186.552 49.52C184.685 51.76 182.339 53.4667 179.512 54.64C176.739 55.8133 173.672 56.4 170.312 56.4Z" fill="#A2C6F6"/>
<path d="M218.673 71.92C214.833 71.92 211.153 71.36 207.633 70.24C204.113 69.12 201.26 67.52 199.073 65.44L201.953 61.12C203.926 62.88 206.353 64.2667 209.233 65.28C212.166 66.3467 215.26 66.88 218.513 66.88C223.846 66.88 227.766 65.6267 230.273 63.12C232.78 60.6667 234.033 56.8267 234.033 51.6V41.12L234.833 33.92L234.273 26.72V14H239.713V50.88C239.713 58.1333 237.926 63.44 234.353 66.8C230.833 70.2133 225.606 71.92 218.673 71.92ZM217.633 54.4C213.633 54.4 210.033 53.5467 206.833 51.84C203.633 50.08 201.1 47.6533 199.233 44.56C197.42 41.4667 196.513 37.92 196.513 33.92C196.513 29.92 197.42 26.4 199.233 23.36C201.1 20.2667 203.633 17.8667 206.833 16.16C210.033 14.4533 213.633 13.6 217.633 13.6C221.366 13.6 224.726 14.3733 227.713 15.92C230.7 17.4667 233.073 19.76 234.833 22.8C236.593 25.84 237.473 29.5467 237.473 33.92C237.473 38.2933 236.593 42 234.833 45.04C233.073 48.08 230.7 50.4 227.713 52C224.726 53.6 221.366 54.4 217.633 54.4ZM218.193 49.36C221.286 49.36 224.033 48.72 226.433 47.44C228.833 46.1067 230.726 44.2933 232.113 42C233.5 39.6533 234.193 36.96 234.193 33.92C234.193 30.88 233.5 28.2133 232.113 25.92C230.726 23.6267 228.833 21.84 226.433 20.56C224.033 19.2267 221.286 18.56 218.193 18.56C215.153 18.56 212.406 19.2267 209.953 20.56C207.553 21.84 205.66 23.6267 204.273 25.92C202.94 28.2133 202.273 30.88 202.273 33.92C202.273 36.96 202.94 39.6533 204.273 42C205.66 44.2933 207.553 46.1067 209.953 47.44C212.406 48.72 215.153 49.36 218.193 49.36Z" fill="#A2C6F6"/>
<path d="M281.839 56V46.72L281.599 45.2V29.68C281.599 26.1067 280.585 23.36 278.559 21.44C276.585 19.52 273.625 18.56 269.679 18.56C266.959 18.56 264.372 19.0133 261.919 19.92C259.465 20.8267 257.385 22.0267 255.679 23.52L253.119 19.28C255.252 17.4667 257.812 16.08 260.799 15.12C263.785 14.1067 266.932 13.6 270.239 13.6C275.679 13.6 279.865 14.96 282.799 17.68C285.785 20.3467 287.279 24.4267 287.279 29.92V56H281.839ZM267.359 56.4C264.212 56.4 261.465 55.8933 259.119 54.88C256.825 53.8133 255.065 52.3733 253.839 50.56C252.612 48.6933 251.999 46.56 251.999 44.16C251.999 41.9733 252.505 40 253.519 38.24C254.585 36.4267 256.292 34.9867 258.639 33.92C261.039 32.8 264.239 32.24 268.239 32.24H282.719V36.48H268.399C264.345 36.48 261.519 37.2 259.919 38.64C258.372 40.08 257.599 41.8667 257.599 44C257.599 46.4 258.532 48.32 260.399 49.76C262.265 51.2 264.879 51.92 268.239 51.92C271.439 51.92 274.185 51.2 276.479 49.76C278.825 48.2667 280.532 46.1333 281.599 43.36L282.879 47.28C281.812 50.0533 279.945 52.2667 277.279 53.92C274.665 55.5733 271.359 56.4 267.359 56.4Z" fill="#A2C6F6"/>
<path d="M302.706 56V14H308.146V25.44L307.586 23.44C308.76 20.24 310.733 17.8133 313.506 16.16C316.28 14.4533 319.72 13.6 323.826 13.6V19.12C323.613 19.12 323.4 19.12 323.186 19.12C322.973 19.0667 322.76 19.04 322.546 19.04C318.12 19.04 314.653 20.4 312.146 23.12C309.64 25.7867 308.386 29.6 308.386 34.56V56H302.706Z" fill="#A2C6F6"/>
<path d="M0 56V0H4.88L43.52 48.64H40.96V0H46.8V56H41.92L3.36 7.36H5.92V56H0Z" fill="#1A73E8"/>
</svg>
