<svg width="161" height="161" viewBox="0 0 161 161" fill="none" xmlns="http://www.w3.org/2000/svg">
<mask id="mask0_14_32" style="mask-type:alpha" maskUnits="userSpaceOnUse" x="0" y="0" width="161" height="161">
<rect width="161" height="161" fill="#1A73E8"/>
</mask>
<g mask="url(#mask0_14_32)">
<path d="M80.5004 87.2082C73.9039 87.2082 68.3416 84.9441 63.8134 80.416C59.2853 75.8879 57.0212 70.3255 57.0212 63.729C57.0212 57.1325 59.2853 51.5702 63.8134 47.042C68.3416 42.5139 73.9039 40.2498 80.5004 40.2498C87.0969 40.2498 92.6593 42.5139 97.1874 47.042C101.716 51.5702 103.98 57.1325 103.98 63.729C103.98 70.3255 101.716 75.8879 97.1874 80.416C92.6593 84.9441 87.0969 87.2082 80.5004 87.2082ZM80.5004 73.7915C83.4073 73.7915 85.8112 72.8412 87.7119 70.9405C89.6126 69.0398 90.5629 66.6359 90.5629 63.729C90.5629 60.8221 89.6126 58.4182 87.7119 56.5175C85.8112 54.6169 83.4073 53.6665 80.5004 53.6665C77.5935 53.6665 75.1896 54.6169 73.2889 56.5175C71.3883 58.4182 70.4379 60.8221 70.4379 63.729C70.4379 66.6359 71.3883 69.0398 73.2889 70.9405C75.1896 72.8412 77.5935 73.7915 80.5004 73.7915ZM80.5004 147.583C64.9594 143.67 52.1297 134.753 42.0113 120.834C31.8929 106.914 26.8337 91.4568 26.8337 74.4623V33.5415L80.5004 13.4165L134.167 33.5415V74.4623C134.167 91.4568 129.108 106.914 118.989 120.834C108.871 134.753 96.0414 143.67 80.5004 147.583ZM80.5004 27.6717L40.2504 42.7655V74.4623C40.2504 80.4998 41.0889 86.3696 42.766 92.0717C44.4431 97.7738 46.7351 103.14 49.6421 108.172C54.3379 105.824 59.2573 103.979 64.4004 102.637C69.5435 101.296 74.9101 100.625 80.5004 100.625C86.0907 100.625 91.4574 101.296 96.6004 102.637C101.743 103.979 106.663 105.824 111.359 108.172C114.266 103.14 116.558 97.7738 118.235 92.0717C119.912 86.3696 120.75 80.4998 120.75 74.4623V42.7655L80.5004 27.6717ZM80.5004 114.042C76.4754 114.042 72.5622 114.489 68.7608 115.383C64.9594 116.278 61.3258 117.507 57.8598 119.073C61.1021 122.427 64.624 125.334 68.4254 127.794C72.2268 130.253 76.2518 132.154 80.5004 133.496C84.749 132.154 88.774 130.253 92.5754 127.794C96.3768 125.334 99.8987 122.427 103.141 119.073C99.6751 117.507 96.0414 116.278 92.24 115.383C88.4386 114.489 84.5254 114.042 80.5004 114.042Z" fill="#1A73E8"/>
</g>
</svg>
