<svg width="162" height="162" viewBox="0 0 162 162" fill="none" xmlns="http://www.w3.org/2000/svg">
<mask id="mask0_14_20" style="mask-type:alpha" maskUnits="userSpaceOnUse" x="0" y="0" width="162" height="162">
<rect x="0.595215" y="0.351624" width="161" height="161" fill="#1A73E8"/>
</mask>
<g mask="url(#mask0_14_20)">
<path d="M74.5535 141.227V126.804C68.6278 125.462 63.5127 122.891 59.2082 119.089C54.9037 115.288 51.7452 109.921 49.7327 102.989L62.1431 97.9579C63.8202 103.325 66.3078 107.405 69.6061 110.201C72.9044 112.996 77.2368 114.393 82.6035 114.393C87.1875 114.393 91.0728 113.359 94.2592 111.291C97.4457 109.222 99.0389 106.008 99.0389 101.647C99.0389 97.7343 97.8091 94.6317 95.3493 92.3396C92.8896 90.0476 87.1875 87.4482 78.2431 84.5412C68.6278 81.5225 62.0313 77.9167 58.4535 73.724C54.8757 69.5313 53.0868 64.4162 53.0868 58.3787C53.0868 51.1113 55.4348 45.4652 60.1306 41.4402C64.8264 37.4152 69.6341 35.1232 74.5535 34.5641V20.4766H87.9702V34.5641C93.5605 35.4586 98.1724 37.499 101.806 40.6855C105.44 43.8719 108.095 47.7572 109.772 52.3412L97.3618 57.7079C96.0202 54.1301 94.1195 51.4468 91.6598 49.6579C89.2 47.869 85.8459 46.9745 81.5973 46.9745C76.6778 46.9745 72.9323 48.0646 70.3608 50.2449C67.7893 52.4251 66.5035 55.1363 66.5035 58.3787C66.5035 62.0683 68.1806 64.9752 71.5348 67.0995C74.8889 69.2238 80.7028 71.46 88.9764 73.8079C96.691 76.044 102.533 79.5938 106.502 84.4574C110.471 89.3209 112.456 94.9391 112.456 101.312C112.456 109.25 110.108 115.288 105.412 119.425C100.716 123.561 94.9021 126.133 87.9702 127.139V141.227H74.5535Z" fill="#1A73E8"/>
</g>
</svg>
