<svg width="161" height="161" viewBox="0 0 161 161" fill="none" xmlns="http://www.w3.org/2000/svg">
<mask id="mask0_14_8" style="mask-type:alpha" maskUnits="userSpaceOnUse" x="0" y="0" width="161" height="161">
<rect width="161" height="161" fill="#1A73E8"/>
</mask>
<g mask="url(#mask0_14_8)">
<path d="M20.1252 90.5626L73.7919 13.4168V90.5626H20.1252ZM45.7846 77.1459H60.3752V56.1824L45.7846 77.1459ZM83.8544 90.5626C85.196 87.432 86.6495 81.9536 88.2148 74.1272C89.7801 66.3008 90.5627 58.3626 90.5627 50.3126C90.5627 42.2626 89.808 33.989 88.2986 25.4918C86.7893 16.9945 85.3078 10.7334 83.8544 6.70844C90.6745 8.72094 97.4667 12.4664 104.231 17.9449C110.995 23.4234 117.089 29.964 122.511 37.5668C127.934 45.1695 132.35 53.527 135.76 62.6392C139.17 71.7513 140.875 81.0591 140.875 90.5626H83.8544ZM101.296 77.1459H126.117C124.216 68.5369 121.114 60.6546 116.809 53.4991C112.505 46.3435 107.948 40.2501 103.141 35.2189C103.364 37.5668 103.56 39.9985 103.728 42.5142C103.896 45.0298 103.979 47.6293 103.979 50.3126C103.979 55.5675 103.728 60.431 103.225 64.9032C102.722 69.3754 102.079 73.4563 101.296 77.1459ZM60.3752 127.458C56.3502 127.458 52.6047 126.508 49.1387 124.607C45.6728 122.707 42.7099 120.303 40.2502 117.396C38.6849 119.073 36.9799 120.638 35.1351 122.092C33.2903 123.545 31.2499 124.719 29.0137 125.614C25.1006 122.707 21.7743 119.101 19.0351 114.796C16.2959 110.492 14.4231 105.768 13.4169 100.625H147.584C146.577 105.768 144.705 110.492 141.965 114.796C139.226 119.101 135.9 122.707 131.987 125.614C129.751 124.719 127.71 123.545 125.865 122.092C124.021 120.638 122.315 119.073 120.75 117.396C118.179 120.303 115.188 122.707 111.778 124.607C108.368 126.508 104.65 127.458 100.625 127.458C96.6002 127.458 92.8547 126.508 89.3887 124.607C85.9228 122.707 82.9599 120.303 80.5002 117.396C78.0405 120.303 75.0776 122.707 71.6117 124.607C68.1457 126.508 64.4002 127.458 60.3752 127.458ZM13.4169 154.292V140.875H20.1252C23.703 140.875 27.1969 140.316 30.607 139.198C34.017 138.08 37.2315 136.403 40.2502 134.167C43.269 136.403 46.4834 138.052 49.8934 139.114C53.3035 140.176 56.7974 140.707 60.3752 140.707C63.953 140.707 67.419 140.176 70.7731 139.114C74.1273 138.052 77.3696 136.403 80.5002 134.167C83.519 136.403 86.7334 138.052 90.1434 139.114C93.5535 140.176 97.0474 140.707 100.625 140.707C104.203 140.707 107.669 140.176 111.023 139.114C114.377 138.052 117.62 136.403 120.75 134.167C123.881 136.403 127.123 138.08 130.477 139.198C133.831 140.316 137.297 140.875 140.875 140.875H147.584V154.292H140.875C137.409 154.292 133.999 153.872 130.645 153.034C127.291 152.195 123.993 150.938 120.75 149.261C117.508 150.938 114.21 152.195 110.855 153.034C107.501 153.872 104.091 154.292 100.625 154.292C97.1592 154.292 93.7492 153.872 90.395 153.034C87.0408 152.195 83.7426 150.938 80.5002 149.261C77.2578 150.938 73.9596 152.195 70.6054 153.034C67.2513 153.872 63.8412 154.292 60.3752 154.292C56.9092 154.292 53.4992 153.872 50.145 153.034C46.7908 152.195 43.4926 150.938 40.2502 149.261C37.0078 150.938 33.7096 152.195 30.3554 153.034C27.0012 153.872 23.5912 154.292 20.1252 154.292H13.4169Z" fill="#1A73E8"/>
</g>
</svg>
