<svg width="40" height="41" viewBox="0 0 40 41" fill="none" xmlns="http://www.w3.org/2000/svg">
<mask id="mask0_61_20" style="mask-type:alpha" maskUnits="userSpaceOnUse" x="0" y="0" width="40" height="41">
<rect y="0.351624" width="40" height="40" fill="#D9D9D9"/>
</mask>
<g mask="url(#mask0_61_20)">
<path d="M32.6667 35.3516L22.1667 24.8516C21.3334 25.5183 20.3751 26.046 19.2917 26.4349C18.2084 26.8238 17.0556 27.0183 15.8334 27.0183C12.8056 27.0183 10.2431 25.9696 8.14589 23.8724C6.04867 21.7752 5.00006 19.2127 5.00006 16.1849C5.00006 13.1571 6.04867 10.5946 8.14589 8.49743C10.2431 6.4002 12.8056 5.35159 15.8334 5.35159C18.8612 5.35159 21.4237 6.4002 23.5209 8.49743C25.6181 10.5946 26.6667 13.1571 26.6667 16.1849C26.6667 17.4071 26.4723 18.5599 26.0834 19.6433C25.6945 20.7266 25.1667 21.6849 24.5001 22.5183L35.0001 33.0183L32.6667 35.3516ZM15.8334 23.6849C17.9167 23.6849 19.6876 22.9558 21.1459 21.4974C22.6042 20.0391 23.3334 18.2683 23.3334 16.1849C23.3334 14.1016 22.6042 12.3308 21.1459 10.8724C19.6876 9.41409 17.9167 8.68493 15.8334 8.68493C13.7501 8.68493 11.9792 9.41409 10.5209 10.8724C9.06256 12.3308 8.33339 14.1016 8.33339 16.1849C8.33339 18.2683 9.06256 20.0391 10.5209 21.4974C11.9792 22.9558 13.7501 23.6849 15.8334 23.6849Z" fill="#1A73E8"/>
</g>
</svg>
