<svg width="162" height="162" viewBox="0 0 162 162" fill="none" xmlns="http://www.w3.org/2000/svg">
<mask id="mask0_14_26" style="mask-type:alpha" maskUnits="userSpaceOnUse" x="0" y="0" width="162" height="162">
<rect x="0.524414" y="0.112427" width="161" height="161" fill="#1A73E8"/>
</mask>
<g mask="url(#mask0_14_26)">
<path d="M81.024 114.154C82.9247 114.154 84.5179 113.511 85.8037 112.226C87.0895 110.94 87.7323 109.347 87.7323 107.446C87.7323 105.545 87.0895 103.952 85.8037 102.666C84.5179 101.38 82.9247 100.738 81.024 100.738C79.1233 100.738 77.5301 101.38 76.2443 102.666C74.9586 103.952 74.3157 105.545 74.3157 107.446C74.3157 109.347 74.9586 110.94 76.2443 112.226C77.5301 113.511 79.1233 114.154 81.024 114.154ZM81.024 87.3209C82.9247 87.3209 84.5179 86.678 85.8037 85.3923C87.0895 84.1065 87.7323 82.5133 87.7323 80.6126C87.7323 78.7119 87.0895 77.1187 85.8037 75.8329C84.5179 74.5471 82.9247 73.9043 81.024 73.9043C79.1233 73.9043 77.5301 74.5471 76.2443 75.8329C74.9586 77.1187 74.3157 78.7119 74.3157 80.6126C74.3157 82.5133 74.9586 84.1065 76.2443 85.3923C77.5301 86.678 79.1233 87.3209 81.024 87.3209ZM81.024 60.4876C82.9247 60.4876 84.5179 59.8447 85.8037 58.5589C87.0895 57.2732 87.7323 55.6799 87.7323 53.7793C87.7323 51.8786 87.0895 50.2853 85.8037 48.9996C84.5179 47.7138 82.9247 47.0709 81.024 47.0709C79.1233 47.0709 77.5301 47.7138 76.2443 48.9996C74.9586 50.2853 74.3157 51.8786 74.3157 53.7793C74.3157 55.6799 74.9586 57.2732 76.2443 58.5589C77.5301 59.8447 79.1233 60.4876 81.024 60.4876ZM134.691 134.279H27.3573C23.6678 134.279 20.5093 132.966 17.8818 130.338C15.2544 127.711 13.9407 124.552 13.9407 120.863V94.0293C17.6303 94.0293 20.7888 92.7155 23.4162 90.0881C26.0436 87.4607 27.3573 84.3022 27.3573 80.6126C27.3573 76.923 26.0436 73.7645 23.4162 71.1371C20.7888 68.5096 17.6303 67.1959 13.9407 67.1959V40.3626C13.9407 36.673 15.2544 33.5145 17.8818 30.8871C20.5093 28.2596 23.6678 26.9459 27.3573 26.9459H134.691C138.38 26.9459 141.539 28.2596 144.166 30.8871C146.794 33.5145 148.107 36.673 148.107 40.3626V67.1959C144.418 67.1959 141.259 68.5096 138.632 71.1371C136.004 73.7645 134.691 76.923 134.691 80.6126C134.691 84.3022 136.004 87.4607 138.632 90.0881C141.259 92.7155 144.418 94.0293 148.107 94.0293V120.863C148.107 124.552 146.794 127.711 144.166 130.338C141.539 132.966 138.38 134.279 134.691 134.279ZM134.691 120.863V103.756C130.554 101.297 127.284 98.0263 124.88 93.9454C122.476 89.8645 121.274 85.4202 121.274 80.6126C121.274 75.8049 122.476 71.3607 124.88 67.2798C127.284 63.1989 130.554 59.9286 134.691 57.4688V40.3626H27.3573V57.4688C31.4941 59.9286 34.7645 63.1989 37.1683 67.2798C39.5721 71.3607 40.774 75.8049 40.774 80.6126C40.774 85.4202 39.5721 89.8645 37.1683 93.9454C34.7645 98.0263 31.4941 101.297 27.3573 103.756V120.863H134.691Z" fill="#1A73E8"/>
</g>
</svg>
